# xmcd CD database file
#
# Track frame offsets:
#	150
#	19247
#	32587
#	58360
#	78729
#	96452
#	120147
#	131540
#	151952
#	164917
#	185410
#	204307
#	222690
#
# Disc length: 3182 seconds
#
# Revision: 0
# Processed by: cddbd v1.5.1PL0 Copyright (c) Steve Scherf et al.
# Submitted via: CDex 1.51
#
DISCID=bd0c6c0d
DTITLE=Ester Brohus - When Time Comes
DYEAR=1900
DGENRE=Country
TTITLE0=The Woman I Am
TTITLE1=Old Time Blues
TTITLE2=Waiting
TTITLE3=Louise
TTITLE4=Feel it's Over
TTITLE5=Ordinary Girl
TTITLE6=Rose
TTITLE7=When Time Comes
TTITLE8=Endlessly
TTITLE9=This Old Man
TTITLE10=I'm Proud to Know Your Name
TTITLE11=Di Wish You Well
TTITLE12=For You
EXTD=
EXTT0=
EXTT1=
EXTT2=
EXTT3=
EXTT4=
EXTT5=
EXTT6=
EXTT7=
EXTT8=
EXTT9=
EXTT10=
EXTT11=
EXTT12=
PLAYORDER=
